<svg width="600" height="600" viewBox="0 0 600 600" fill="none" xmlns="http://www.w3.org/2000/svg">
<path d="M205.545 261.273C210.788 261.273 215.364 262.333 219.273 264.455C223.212 266.576 226.273 269.606 228.455 273.545C230.636 277.485 231.727 282.182 231.727 287.636H219.909C219.909 282.455 218.561 278.439 215.864 275.591C213.197 272.712 209.697 271.273 205.364 271.273C201.515 271.273 198.167 272.379 195.318 274.591C192.5 276.773 190.318 279.788 188.773 283.636C187.227 287.485 186.455 291.909 186.455 296.909V299.455C186.455 303 187.333 306.273 189.091 309.273C190.879 312.273 193.485 314.894 196.909 317.136C200.364 319.348 204.576 321.091 209.545 322.364C214.394 323.606 218.091 324.864 220.636 326.136C223.212 327.409 224.97 328.803 225.909 330.318C226.879 331.803 227.364 333.515 227.364 335.455C227.364 339.121 226.242 342.727 224 346.273C221.788 349.848 219.152 352.909 216.091 355.455L209.545 349.818C212.03 347 213.652 344.833 214.409 343.318C215.167 341.833 215.545 340.333 215.545 338.818C215.545 336.758 214.879 335.318 213.545 334.5C212.242 333.682 209.697 332.848 205.909 332C199.182 330.455 193.561 328.227 189.045 325.318C184.561 322.409 181.182 318.803 178.909 314.5C176.667 310.167 175.545 305.152 175.545 299.455V296.909C175.545 289.818 176.758 283.606 179.182 278.273C181.636 272.909 185.106 268.742 189.591 265.773C194.106 262.773 199.424 261.273 205.545 261.273Z" fill="white"/>
<path d="M275.376 364.28C255.664 364.28 245.808 353.613 245.808 332.28V327.16C245.808 305.827 255.707 295.16 275.504 295.16C281.051 295.16 286.085 295.843 290.608 297.208V323.96H280.624V298.744L285.488 306.04C283.611 305.357 281.733 304.888 279.856 304.632C277.979 304.291 276.101 304.12 274.224 304.12C267.909 304.12 263.301 305.997 260.4 309.752C257.499 313.507 256.048 319.523 256.048 327.8V331.64C256.048 337.357 256.688 341.965 257.968 345.464C259.333 348.963 261.509 351.48 264.496 353.016C267.483 354.552 271.451 355.32 276.4 355.32C278.789 355.32 281.136 355.149 283.44 354.808C285.744 354.467 288.133 353.912 290.608 353.144V362.232C288.304 362.829 285.872 363.299 283.312 363.64C280.752 364.067 278.107 364.28 275.376 364.28ZM335.28 363V305.4H312.24V296.44H345.52V363H335.28ZM338.352 284.408C335.621 284.408 333.403 283.64 331.696 282.104C330.075 280.483 329.264 278.349 329.264 275.704C329.264 272.973 330.075 270.84 331.696 269.304C333.403 267.768 335.621 267 338.352 267C341.083 267 343.259 267.768 344.88 269.304C346.587 270.84 347.44 272.973 347.44 275.704C347.44 278.349 346.587 280.483 344.88 282.104C343.259 283.64 341.083 284.408 338.352 284.408ZM398 364.28C389.211 364.28 382.725 361.72 378.544 356.6C374.448 351.395 372.4 343.288 372.4 332.28V327.16C372.4 316.152 374.448 308.088 378.544 302.968C382.725 297.763 389.211 295.16 398 295.16C406.875 295.16 413.36 297.763 417.456 302.968C421.552 308.088 423.6 316.152 423.6 327.16V332.28C423.6 343.288 421.552 351.395 417.456 356.6C413.36 361.72 406.875 364.28 398 364.28ZM398 355.32C403.547 355.32 407.472 353.485 409.776 349.816C412.165 346.147 413.36 340.088 413.36 331.64V327.8C413.36 319.352 412.165 313.293 409.776 309.624C407.472 305.955 403.547 304.12 398 304.12C392.539 304.12 388.613 305.955 386.224 309.624C383.835 313.293 382.64 319.352 382.64 327.8V331.64C382.64 340.088 383.835 346.147 386.224 349.816C388.613 353.485 392.539 355.32 398 355.32Z" fill="white"/>
</svg>
